fd_3_states
version=1
nRows=27
nColumns=17
inDegrees=yes

# SIMM Motion File Header:
name fd_3_states
datacolumns 17
datarows 27
otherdata 1
range 0.030000 0.053400
endheader
time	/jointset/r_shoulder/r_shoulder_elev/value	/jointset/r_shoulder/r_shoulder_elev/speed	/jointset/r_elbow/r_elbow_flex/value	/jointset/r_elbow/r_elbow_flex/speed	/forceset/TRIlong/activation	/forceset/TRIlong/fiber_length	/forceset/TRIlat/activation	/forceset/TRIlat/fiber_length	/forceset/TRImed/activation	/forceset/TRImed/fiber_length	/forceset/BIClong/activation	/forceset/BIClong/fiber_length	/forceset/BICshort/activation	/forceset/BICshort/fiber_length	/forceset/BRA/activation	/forceset/BRA/fiber_length
      0.030000	      0.000000	      0.000000	    135.799993	   -140.000003	      0.020000	      0.184655	      0.471420	      0.118366	      0.482217	      0.113396	      0.679062	      0.057692	      0.020000	      0.060758	      0.020000	      0.049974
      0.030061	     -0.000000	     -0.003189	    135.791402	   -139.996721	      0.020006	      0.184652	      0.470585	      0.118363	      0.481351	      0.113393	      0.677534	      0.057698	      0.020675	      0.060763	      0.020455	      0.049977
      0.030123	     -0.000000	     -0.006430	    135.782811	   -139.993365	      0.020006	      0.184649	      0.469753	      0.118361	      0.480487	      0.113391	      0.676012	      0.057705	      0.021556	      0.060766	      0.020735	      0.049979
      0.030430	     -0.000005	     -0.023581	    135.739859	   -139.973899	      0.020006	      0.184636	      0.465627	      0.118347	      0.476207	      0.113377	      0.668493	      0.057738	      0.025779	      0.060775	      0.022084	      0.049990
      0.031608	     -0.000081	     -0.112412	    135.574942	   -139.838271	      0.020006	      0.184583	      0.450311	      0.118300	      0.460327	      0.113330	      0.640885	      0.057883	      0.039606	      0.060779	      0.026569	      0.050019
      0.033378	     -0.000472	     -0.355965	    135.327715	   -139.456849	      0.020006	      0.184505	      0.428794	      0.118238	      0.438042	      0.113267	      0.602893	      0.058142	      0.054997	      0.060761	      0.031640	      0.050065
      0.034673	     -0.001108	     -0.642691	    135.147358	   -139.077983	      0.020006	      0.184446	      0.414083	      0.118195	      0.422822	      0.113225	      0.577436	      0.058349	      0.063365	      0.060745	      0.034407	      0.050106
      0.035968	     -0.002182	     -1.034298	    134.967530	   -138.644710	      0.020006	      0.184390	      0.400166	      0.118155	      0.408436	      0.113184	      0.553729	      0.058561	      0.069969	      0.060733	      0.036581	      0.050155
      0.037263	     -0.003830	     -1.526324	    134.788295	   -138.161029	      0.020006	      0.184330	      0.386981	      0.118116	      0.394818	      0.113144	      0.531600	      0.058773	      0.075222	      0.060728	      0.038293	      0.050208
      0.038365	     -0.005780	     -2.026431	    134.636301	   -137.718204	      0.020006	      0.184282	      0.376299	      0.118083	      0.383792	      0.113110	      0.513902	      0.058951	      0.078856	      0.060729	      0.039462	      0.050256
      0.039467	     -0.008320	     -2.593507	    134.484813	   -137.240209	      0.020006	      0.184232	      0.366076	      0.118050	      0.373248	      0.113077	      0.497157	      0.059127	      0.081872	      0.060734	      0.040420	      0.050305
      0.039871	     -0.009411	     -2.818021	    134.429482	   -137.056726	      0.020006	      0.184214	      0.362443	      0.118038	      0.369502	      0.113065	      0.491249	      0.059190	      0.082844	      0.060737	      0.040725	      0.050324
      0.040038	     -0.009891	     -2.913722	    134.406536	   -136.979087	      0.020006	      0.184206	      0.360952	      0.118033	      0.367964	      0.113060	      0.488846	      0.059216	      0.083163	      0.060739	      0.040989	      0.050332
      0.040140	     -0.010191	     -2.972682	    134.392580	   -136.931357	      0.020006	      0.184202	      0.360049	      0.118030	      0.367034	      0.113057	      0.487479	      0.059232	      0.083130	      0.060739	      0.041971	      0.050336
      0.040242	     -0.010497	     -3.032206	    134.378628	   -136.883046	      0.020006	      0.184197	      0.359150	      0.118027	      0.366107	      0.113054	      0.486127	      0.059248	      0.083092	      0.060740	      0.043011	      0.050339
      0.040751	     -0.012119	     -3.338575	    134.308946	   -136.627932	      0.020005	      0.184174	      0.354706	      0.118012	      0.361527	      0.113039	      0.479463	      0.059326	      0.082901	      0.060747	      0.047900	      0.050353
      0.042165	     -0.017482	     -4.266233	    134.116364	   -135.752171	      0.020005	      0.184110	      0.342819	      0.117971	      0.349282	      0.112996	      0.461772	      0.059538	      0.082382	      0.060778	      0.059165	      0.050379
      0.044884	     -0.031840	     -6.358285	    133.750360	   -133.281379	      0.020005	      0.183983	      0.321642	      0.117891	      0.327488	      0.112914	      0.430734	      0.059929	      0.081417	      0.060912	      0.074038	      0.050436
      0.045710	     -0.037380	     -7.069560	    133.640723	   -132.358250	      0.020005	      0.183946	      0.315616	      0.117866	      0.321291	      0.112890	      0.422012	      0.060044	      0.081133	      0.060973	      0.077308	      0.050460
      0.046873	     -0.046210	     -8.123270	    133.487573	   -130.961448	      0.020005	      0.183892	      0.307417	      0.117832	      0.312864	      0.112855	      0.410224	      0.060204	      0.080738	      0.061068	      0.081200	      0.050498
      0.049007	     -0.065734	    -10.202032	    133.210981	   -128.210511	      0.020005	      0.183791	      0.293207	      0.117770	      0.298268	      0.112791	      0.390002	      0.060490	      0.080033	      0.061254	      0.086636	      0.050579
      0.049723	     -0.073296	    -10.938195	    133.119588	   -127.254003	      0.020005	      0.183758	      0.288669	      0.117750	      0.293609	      0.112770	      0.383600	      0.060583	      0.079803	      0.061318	      0.088071	      0.050608
      0.050043	     -0.076854	    -11.273438	    133.078887	   -126.821771	      0.020005	      0.183743	      0.286672	      0.117740	      0.291559	      0.112761	      0.380819	      0.060625	      0.079717	      0.061346	      0.088568	      0.050621
      0.050240	     -0.079096	    -11.481361	    133.053922	   -126.554949	      0.020005	      0.183734	      0.285454	      0.117735	      0.290309	      0.112755	      0.379275	      0.060651	      0.080101	      0.061363	      0.088549	      0.050629
      0.050437	     -0.081379	    -11.690549	    133.029009	   -126.287538	      0.020005	      0.183725	      0.284244	      0.117729	      0.289068	      0.112749	      0.377755	      0.060676	      0.080549	      0.061379	      0.088525	      0.050637
      0.051422	     -0.093419	    -12.754141	    132.905239	   -124.943590	      0.020005	      0.183678	      0.278311	      0.117701	      0.282980	      0.112720	      0.370320	      0.060801	      0.082579	      0.061453	      0.088404	      0.050682
      0.053400	     -0.120807	    -14.967328	    132.660896	   -122.219647	      0.020005	      0.183583	      0.266964	      0.117645	      0.271343	      0.112663	      0.356188	      0.061043	      0.085782	      0.061587	      0.088168	      0.050775
